# xmcd
#
# Track frame offsets: 
#        150
#        16401
#        32243
#        49813
#        84154
#        101470
#        134809
#        158317
#        173798
#        212409
#        228850
#        265746
#        281178
#        309739
#        339820
#
# Disc length: 4747 seconds
#
# Revision: 0
# Processed by: cddbd v1.5.2PL0 Copyright (c) Steve Scherf et al.
# Submitted via: ExactAudioCopy v1.0b3
#
DISCID=c012890f
DTITLE=Various Artist - Trance Charts Vol. 2 - CD 2
DYEAR=1900
DGENRE=
TTITLE0=Shaun Baker - On A Helium Trip (Radio Version)
TTITLE1=Lady Tom Meets Marc Van Linden - House Of House (De Donatis Ra
TTITLE1=dio Edit)
TTITLE2=Tukan - Light A Rainbow (Green Court Vs. Marc Dawn Rmx Edit)
TTITLE3=Utah - Indian Summer (Intro Mix)
TTITLE4=Katana - Silence (Radio Mix)
TTITLE5=DJ Wag - The Big Bang (Yakooza Remix)
TTITLE6=Remaster - Deep N-R-G (Spacekid Meets Woody Van Eyden Rmx)
TTITLE7=DJ Delgado Project - La Musica (Radio Mix)
TTITLE8=Human Force - Odyssee 3000 (Junk Project Rmx)
TTITLE9=SMP Pres. DJ T-Kay - The Flight (Radio Edit)
TTITLE10=Space Diva - Escape (Original)
TTITLE11=JKB - Ibiza (How Are U?) (Central Seven Radio Mix)
TTITLE12=Condor - You Can (Kiss My ...) (Original Mix)
TTITLE13=Crizz Lee - Teardrops In My Eyes (SMP's Hard Mix)
TTITLE14=Human Force - Sun Rising High (Reysan Khan Mix Edit)
EXTD=
EXTT0=
EXTT1=
EXTT2=
EXTT3=
EXTT4=
EXTT5=
EXTT6=
EXTT7=
EXTT8=
EXTT9=
EXTT10=
EXTT11=
EXTT12=
EXTT13=
EXTT14=
PLAYORDER=
